<?xml version="1.0" standalone="no"?>
<!DOCTYPE svg PUBLIC "-//W3C//DTD SVG 20010904//EN"
 "http://www.w3.org/TR/2001/REC-SVG-20010904/DTD/svg10.dtd">
<svg version="1.0" xmlns="http://www.w3.org/2000/svg"
 width="700.000000pt" height="700.000000pt" viewBox="0 0 700.000000 700.000000"
 preserveAspectRatio="xMidYMid meet">
<metadata>
Created by potrace 1.11, written by Peter Selinger 2001-2013
</metadata>
<g transform="translate(0.000000,700.000000) scale(0.100000,-0.100000)"
fill="#000000" stroke="none">
<path d="M3225 6994 c-246 -25 -498 -70 -680 -123 -1007 -289 -1826 -1002
-2249 -1956 -102 -228 -176 -461 -226 -705 -56 -278 -64 -367 -64 -710 0 -343
8 -432 64 -710 224 -1101 978 -2034 2015 -2494 228 -102 461 -176 705 -226
278 -56 367 -64 710 -64 343 0 432 8 710 64 1360 277 2444 1360 2720 2720 56
278 64 367 64 710 0 343 -8 432 -64 710 -224 1101 -978 2034 -2015 2494 -300
134 -622 224 -970 272 -114 15 -617 28 -720 18z m1783 -872 c-13 -33 -1502
-2602 -1508 -2602 -4 0 -337 573 -741 1273 -403 699 -742 1287 -752 1305 l-19
32 1512 0 c831 0 1510 -4 1508 -8z m-1520 -2631 c-13 -38 -1504 -2608 -1510
-2603 -3 4 -333 574 -733 1267 -400 693 -739 1279 -752 1303 l-25 42 1512 0
c924 0 1510 -4 1508 -9z m3019 -33 c-13 -24 -352 -610 -752 -1303 -400 -693
-730 -1263 -733 -1267 -6 -5 -1497 2566 -1510 2603 -2 5 584 9 1508 9 l1512 0
-25 -42z"/>
</g>
</svg>
